<svg width="25" height="24" viewBox="0 0 25 24" fill="none" xmlns="http://www.w3.org/2000/svg">
<path d="M22.3474 18.7033C21.9812 19.5418 21.5477 20.3136 21.0454 21.0232C20.3607 21.9906 19.8001 22.6602 19.368 23.032C18.6983 23.6424 17.9807 23.955 17.2123 23.9728C16.6607 23.9728 15.9954 23.8172 15.2211 23.5017C14.4441 23.1876 13.7301 23.032 13.0773 23.032C12.3926 23.032 11.6583 23.1876 10.8729 23.5017C10.0862 23.8172 9.45251 23.9816 8.968 23.9979C8.23114 24.0291 7.49668 23.7076 6.76356 23.032C6.29564 22.6276 5.71037 21.9343 5.00924 20.9521C4.25698 19.9033 3.63853 18.687 3.15402 17.3004C2.63512 15.8026 2.375 14.3523 2.375 12.9482C2.375 11.3398 2.72571 9.95259 3.42819 8.79011C3.98027 7.85636 4.71474 7.11979 5.63398 6.57906C6.55322 6.03834 7.54646 5.76279 8.61609 5.74516C9.20136 5.74516 9.96887 5.92456 10.9226 6.27715C11.8737 6.63091 12.4844 6.81032 12.7522 6.81032C12.9523 6.81032 13.6307 6.60054 14.7808 6.18233C15.8684 5.79449 16.7863 5.63391 17.5382 5.69716C19.5758 5.86012 21.1066 6.6561 22.1247 8.09013C20.3024 9.18432 19.4009 10.7169 19.4189 12.6829C19.4353 14.2142 19.9959 15.4886 21.0977 16.5004C21.597 16.97 22.1546 17.333 22.775 17.5907C22.6405 17.9774 22.4984 18.3477 22.3474 18.7033ZM17.6743 0.480137C17.6743 1.68041 17.2317 2.8011 16.3497 3.8384C15.2853 5.07155 13.9979 5.78412 12.6018 5.67168C12.584 5.52769 12.5737 5.37614 12.5737 5.21688C12.5737 4.06462 13.0798 2.83147 13.9788 1.82321C14.4275 1.3127 14.9983 0.888228 15.6905 0.549615C16.3811 0.216055 17.0344 0.031589 17.6488 0C17.6668 0.160458 17.6743 0.320926 17.6743 0.480121V0.480137Z" fill="black"/>
</svg>
