<svg width="252" height="27" viewBox="0 0 252 27" fill="none" xmlns="http://www.w3.org/2000/svg">
<path d="M13.7305 5.93359L13.918 3.26172C13.918 2.46484 13.7344 1.88281 13.3672 1.51562L13.6016 1.26953C13.9219 1.58203 14.3125 1.73828 14.7734 1.73828H18.9102C19.3789 1.73828 19.7695 1.58203 20.082 1.26953L20.3164 1.51562C20.0117 1.82031 19.8594 2.21094 19.8594 2.6875V16.3984C19.8594 16.8672 20.0117 17.2578 20.3164 17.5703L20.082 17.8047C19.7773 17.5 19.3867 17.3477 18.9102 17.3477H14.7734C14.2969 17.3477 13.9062 17.5 13.6016 17.8047L13.3672 17.5703C13.6641 17.2734 13.8125 16.8828 13.8125 16.3984L13.7891 12.4609C13.7891 11.9922 13.9375 11.6055 14.2344 11.3008L14 11.0664C13.7031 11.3633 13.3125 11.5117 12.8281 11.5117H8.02344C7.54688 11.5117 7.15625 11.3633 6.85156 11.0664L6.61719 11.3008C6.63281 11.4805 6.64062 12.4258 6.64062 14.1367V19.4219C6.64062 20.1328 6.73047 21.1406 6.91016 22.4453C7.08984 23.75 7.17969 24.6719 7.17969 25.2109C7.17969 25.75 7.11328 26.1172 6.98047 26.3125C6.85547 26.5078 6.70312 26.6055 6.52344 26.6055C6.34375 26.6055 6.1875 26.5078 6.05469 26.3125C5.92969 26.125 5.86719 25.9297 5.86719 25.7266C5.86719 25.5312 5.90625 25.0742 5.98438 24.3555C6.21875 22.1836 6.33594 20.5508 6.33594 19.457C6.33594 18.918 6.17188 18.4492 5.84375 18.0508C5.20312 17.2773 4.32422 16.8906 3.20703 16.8906C2.63672 16.8906 2.15625 17.0234 1.76562 17.2891C1.38281 17.5547 1.19141 17.9219 1.19141 18.3906C1.19141 18.8672 1.26562 19.5625 1.41406 20.4766C1.57031 21.3906 1.64844 22.0234 1.64844 22.375C1.64844 23.1016 1.42188 23.4648 0.96875 23.4648C0.757812 23.4648 0.578125 23.3828 0.429688 23.2188C0.28125 23.0625 0.207031 22.8008 0.207031 22.4336C0.207031 22.0742 0.332031 21.4258 0.582031 20.4883C0.839844 19.5508 0.96875 18.8203 0.96875 18.2969V2.6875C0.96875 2.19531 0.820312 1.80469 0.523438 1.51562L0.746094 1.26953C1.06641 1.58203 1.45703 1.73828 1.91797 1.73828H6.125C6.58594 1.73828 6.97266 1.58203 7.28516 1.26953L7.53125 1.51562C7.17188 1.875 6.99219 2.46094 6.99219 3.27344L7.16797 5.96875C7.16797 6.77344 6.98438 7.35938 6.61719 7.72656L6.85156 7.97266C7.15625 7.66797 7.54688 7.51562 8.02344 7.51562H12.875C13.3516 7.51562 13.7383 7.66797 14.0352 7.97266L14.2812 7.72656C13.9141 7.35156 13.7305 6.75391 13.7305 5.93359ZM33.8164 19.2461L33.8984 18.1211C33.8984 17.9258 33.8047 17.7734 33.6172 17.6641C33.4297 17.5625 33.2266 17.5117 33.0078 17.5117C32.7891 17.5117 32.5938 17.5703 32.4219 17.6875C32.25 17.8047 32.1641 17.9727 32.1641 18.1914V20.8867C32.1641 21.2773 32.2461 21.8516 32.4102 22.6094C32.5742 23.3672 32.6562 23.9062 32.6562 24.2266C32.6562 24.5547 32.5859 24.8242 32.4453 25.0352C32.3047 25.2461 32.1094 25.3516 31.8594 25.3516C31.6172 25.3516 31.4336 25.2422 31.3086 25.0234C31.1836 24.8047 31.1211 24.5195 31.1211 24.168C31.1211 23.8164 31.2109 23.207 31.3906 22.3398C31.5703 21.4727 31.6602 20.8008 31.6602 20.3242C31.6602 18.3945 31.3008 17.4297 30.582 17.4297C29.6133 17.4297 29.1289 17.3906 29.1289 17.3125V17.3359C29.1289 17.875 29.2461 18.6641 29.4805 19.7031C29.7227 20.75 29.8438 21.5 29.8438 21.9531C29.8438 22.4062 29.7617 22.7773 29.5977 23.0664C29.4336 23.3633 29.1797 23.5117 28.8359 23.5117C28.5 23.5117 28.2344 23.3711 28.0391 23.0898C27.8516 22.8086 27.7578 22.4414 27.7578 21.9883C27.7578 21.543 27.8711 20.7734 28.0977 19.6797C28.3242 18.5938 28.4375 17.7695 28.4375 17.207C26.5859 16.6211 25.1914 15.6641 24.2539 14.3359C23.3242 13.0078 22.8594 11.3672 22.8594 9.41406C22.8594 5.36719 24.8984 2.8125 28.9766 1.75C30.2969 1.40625 31.6602 1.23438 33.0664 1.23438C34.4805 1.23438 35.6797 1.3125 36.6641 1.46875C37.6562 1.625 38.6133 1.90234 39.5352 2.30078C40.4648 2.69141 41.2539 3.19141 41.9023 3.80078C42.5586 4.40234 43.082 5.18359 43.4727 6.14453C43.8633 7.09766 44.0586 8.1875 44.0586 9.41406C44.0586 11.9141 43.3555 13.8516 41.9492 15.2266C40.543 16.5938 38.5664 17.4336 36.0195 17.7461C35.9883 17.8008 35.9727 17.8867 35.9727 18.0039L36.0312 18.6484C36.0312 19.0469 35.9219 19.2461 35.7031 19.2461C35.4844 19.2461 35.375 19.0547 35.375 18.6719L35.4102 18.0156C35.4102 17.7812 35.2422 17.6641 34.9062 17.6641C34.875 17.7344 34.8594 17.8672 34.8594 18.0625L34.918 19.1992C34.918 19.4336 34.875 19.6602 34.7891 19.8789C34.7031 20.0977 34.5586 20.207 34.3555 20.207C33.9961 20.207 33.8164 19.8867 33.8164 19.2461ZM29.3867 9.42578C29.3867 12.2852 30.7461 13.7148 33.4648 13.7148C36.1836 13.7148 37.543 12.2852 37.543 9.42578C37.543 8.11328 37.1914 7.10938 36.4883 6.41406C35.7852 5.71875 34.7773 5.37109 33.4648 5.37109C32.1523 5.37109 31.1445 5.71875 30.4414 6.41406C29.7383 7.10938 29.3867 8.11328 29.3867 9.42578ZM65.9609 21.1914L66.2188 18.7656C66.2188 17.7812 65.8164 17.0312 65.0117 16.5156C64.2148 15.9922 63.375 15.7617 62.4922 15.8242C61.6094 15.8789 60.9922 16.1758 60.6406 16.7148C60.4609 16.9727 60.3711 17.2773 60.3711 17.6289L60.3125 20.7695C60.3125 21.1992 60.3789 21.8359 60.5117 22.6797C60.6445 23.5312 60.7109 24.1719 60.7109 24.6016C60.7109 25.3594 60.4961 25.7383 60.0664 25.7383C59.6367 25.7383 59.4219 25.3711 59.4219 24.6367C59.4219 24.1523 59.4922 23.457 59.6328 22.5508C59.7734 21.6445 59.8516 20.957 59.8672 20.4883C59.8906 20.0195 59.9023 19.0195 59.9023 17.4883C59.9023 17.082 59.7773 16.6133 59.5273 16.082C59.2773 15.5508 58.8828 14.8203 58.3438 13.8906C57.8047 12.9609 57.3633 12.1406 57.0195 11.4297L56.668 11.2305C56.4805 11.5742 56.1484 11.7461 55.6719 11.7461L54.6875 11.7812C54.0156 11.7812 53.5117 11.6172 53.1758 11.2891L52.9297 11.5234C52.9531 11.8125 52.9648 12.4297 52.9648 13.375L52.9531 16.2461C52.9531 17.1055 52.9688 17.7383 53 18.1445L53.2227 19.8672C53.2227 20.1875 53.1133 20.3477 52.8945 20.3477C52.6758 20.3477 52.5664 20.1992 52.5664 19.9023L52.7539 18.4492C52.7539 18.0977 52.6484 17.8164 52.4375 17.6055C52.2344 17.4023 51.9648 17.3008 51.6289 17.3008C51.3008 17.3008 51.0078 17.4453 50.75 17.7344C50.5 18.0312 50.375 18.4141 50.375 18.8828C50.375 19.3516 50.4609 19.9844 50.6328 20.7812C50.8047 21.5859 50.8906 22.1641 50.8906 22.5156C50.8906 23.25 50.6289 23.6172 50.1055 23.6172C49.582 23.6172 49.3203 23.2578 49.3203 22.5391C49.3203 22.2031 49.3945 21.6172 49.543 20.7812C49.6992 19.9453 49.7773 19.2812 49.7773 18.7891C49.7773 18.2969 49.6641 17.8906 49.4375 17.5703C49.2109 17.2578 48.9531 17.1016 48.6641 17.1016C48.375 17.1016 48.1289 17.1992 47.9258 17.3945C47.7227 17.5977 47.6211 17.8477 47.6211 18.1445L47.9375 20.9219C47.9375 21.3984 47.7617 21.6367 47.4102 21.6367C47.0586 21.6367 46.8828 21.3945 46.8828 20.9102C46.8828 20.6289 46.957 20.1367 47.1055 19.4336C47.2539 18.7383 47.3242 18.1953 47.3164 17.8047C47.3086 17.4141 47.3047 12.3594 47.3047 2.64062C47.3047 2.15625 47.1562 1.76953 46.8594 1.48047L47.0938 1.24609C47.3984 1.54297 47.7852 1.69141 48.2539 1.69141H58.7539C60.3945 1.69141 61.4961 1.74219 62.0586 1.84375C62.6289 1.9375 63.125 2.03906 63.5469 2.14844C63.9766 2.25781 64.3359 2.39453 64.625 2.55859C64.9219 2.71484 65.2188 2.91406 65.5156 3.15625C65.8203 3.39062 66.0625 3.66016 66.2422 3.96484C66.6562 4.66016 66.8633 5.39844 66.8633 6.17969C66.8633 6.96094 66.8008 7.60156 66.6758 8.10156C66.5586 8.59375 66.3594 9.05859 66.0781 9.49609C65.4688 10.4414 64.3984 10.9141 62.8672 10.9141L62.7734 11.1836C63.2656 11.3789 63.5938 11.6484 63.7578 11.9922C64.4453 13.4922 64.9531 14.4453 65.2812 14.8516C65.6094 15.25 65.9141 15.5703 66.1953 15.8125C66.4766 16.0547 66.8789 16.3008 67.4023 16.5508C67.9258 16.8008 68.2422 16.9648 68.3516 17.043C68.4609 17.1133 68.5156 17.1719 68.5156 17.2188C68.5156 18 68.6211 19.0039 68.832 20.2305C69.043 21.457 69.1484 22.2461 69.1484 22.5977C69.1484 22.9492 69.1328 23.2031 69.1016 23.3594C69.0781 23.5156 69.0195 23.668 68.9258 23.8164C68.832 23.9727 68.6953 24.0508 68.5156 24.0508C68.3359 24.0508 68.1992 23.9219 68.1055 23.6641C68.0195 23.4062 67.9766 23.0898 67.9766 22.7148C67.9766 22.3398 68.0273 21.668 68.1289 20.6992C68.2305 19.7383 68.2812 19.0117 68.2812 18.5195C68.2812 17.543 67.9648 17.0547 67.332 17.0547C67.0195 17.0547 66.7852 17.1094 66.6289 17.2188C66.4805 17.3281 66.4062 17.5508 66.4062 17.8867C66.4062 18.2305 66.4766 18.7734 66.6172 19.5156C66.7578 20.2578 66.8281 20.8164 66.8281 21.1914C66.8281 21.5742 66.6836 21.7656 66.3945 21.7656C66.1055 21.7656 65.9609 21.5742 65.9609 21.1914ZM58.1562 5.58203L55.3906 5.66406C54.2578 5.66406 53.5195 5.49609 53.1758 5.16016L52.9297 5.38281C53.2422 5.6875 53.3984 6.07812 53.3984 6.55469V7.33984C53.3984 7.80859 53.2422 8.19922 52.9297 8.51172L53.1758 8.74609C53.5117 8.40234 54.207 8.23047 55.2617 8.23047L58.2266 8.33594C59.0156 8.33594 59.625 8.23438 60.0547 8.03125C60.4922 7.82031 60.7109 7.4375 60.7109 6.88281C60.7109 6.53125 60.5898 6.25781 60.3477 6.0625C60.1055 5.85938 59.8125 5.73047 59.4688 5.67578C59.125 5.61328 58.6875 5.58203 58.1562 5.58203ZM90.1719 21.1914L90.4297 18.7656C90.4297 17.7812 90.0273 17.0312 89.2227 16.5156C88.4258 15.9922 87.5859 15.7617 86.7031 15.8242C85.8203 15.8789 85.2031 16.1758 84.8516 16.7148C84.6719 16.9727 84.582 17.2773 84.582 17.6289L84.5234 20.7695C84.5234 21.1992 84.5898 21.8359 84.7227 22.6797C84.8555 23.5312 84.9219 24.1719 84.9219 24.6016C84.9219 25.3594 84.707 25.7383 84.2773 25.7383C83.8477 25.7383 83.6328 25.3711 83.6328 24.6367C83.6328 24.1523 83.7031 23.457 83.8438 22.5508C83.9844 21.6445 84.0625 20.957 84.0781 20.4883C84.1016 20.0195 84.1133 19.0195 84.1133 17.4883C84.1133 17.082 83.9883 16.6133 83.7383 16.082C83.4883 15.5508 83.0938 14.8203 82.5547 13.8906C82.0156 12.9609 81.5742 12.1406 81.2305 11.4297L80.8789 11.2305C80.6914 11.5742 80.3594 11.7461 79.8828 11.7461L78.8984 11.7812C78.2266 11.7812 77.7227 11.6172 77.3867 11.2891L77.1406 11.5234C77.1641 11.8125 77.1758 12.4297 77.1758 13.375L77.1641 16.2461C77.1641 17.1055 77.1797 17.7383 77.2109 18.1445L77.4336 19.8672C77.4336 20.1875 77.3242 20.3477 77.1055 20.3477C76.8867 20.3477 76.7773 20.1992 76.7773 19.9023L76.9648 18.4492C76.9648 18.0977 76.8594 17.8164 76.6484 17.6055C76.4453 17.4023 76.1758 17.3008 75.8398 17.3008C75.5117 17.3008 75.2188 17.4453 74.9609 17.7344C74.7109 18.0312 74.5859 18.4141 74.5859 18.8828C74.5859 19.3516 74.6719 19.9844 74.8438 20.7812C75.0156 21.5859 75.1016 22.1641 75.1016 22.5156C75.1016 23.25 74.8398 23.6172 74.3164 23.6172C73.793 23.6172 73.5312 23.2578 73.5312 22.5391C73.5312 22.2031 73.6055 21.6172 73.7539 20.7812C73.9102 19.9453 73.9883 19.2812 73.9883 18.7891C73.9883 18.2969 73.875 17.8906 73.6484 17.5703C73.4219 17.2578 73.1641 17.1016 72.875 17.1016C72.5859 17.1016 72.3398 17.1992 72.1367 17.3945C71.9336 17.5977 71.832 17.8477 71.832 18.1445L72.1484 20.9219C72.1484 21.3984 71.9727 21.6367 71.6211 21.6367C71.2695 21.6367 71.0938 21.3945 71.0938 20.9102C71.0938 20.6289 71.168 20.1367 71.3164 19.4336C71.4648 18.7383 71.5352 18.1953 71.5273 17.8047C71.5195 17.4141 71.5156 12.3594 71.5156 2.64062C71.5156 2.15625 71.3672 1.76953 71.0703 1.48047L71.3047 1.24609C71.6094 1.54297 71.9961 1.69141 72.4648 1.69141H82.9648C84.6055 1.69141 85.707 1.74219 86.2695 1.84375C86.8398 1.9375 87.3359 2.03906 87.7578 2.14844C88.1875 2.25781 88.5469 2.39453 88.8359 2.55859C89.1328 2.71484 89.4297 2.91406 89.7266 3.15625C90.0312 3.39062 90.2734 3.66016 90.4531 3.96484C90.8672 4.66016 91.0742 5.39844 91.0742 6.17969C91.0742 6.96094 91.0117 7.60156 90.8867 8.10156C90.7695 8.59375 90.5703 9.05859 90.2891 9.49609C89.6797 10.4414 88.6094 10.9141 87.0781 10.9141L86.9844 11.1836C87.4766 11.3789 87.8047 11.6484 87.9688 11.9922C88.6562 13.4922 89.1641 14.4453 89.4922 14.8516C89.8203 15.25 90.125 15.5703 90.4062 15.8125C90.6875 16.0547 91.0898 16.3008 91.6133 16.5508C92.1367 16.8008 92.4531 16.9648 92.5625 17.043C92.6719 17.1133 92.7266 17.1719 92.7266 17.2188C92.7266 18 92.832 19.0039 93.043 20.2305C93.2539 21.457 93.3594 22.2461 93.3594 22.5977C93.3594 22.9492 93.3438 23.2031 93.3125 23.3594C93.2891 23.5156 93.2305 23.668 93.1367 23.8164C93.043 23.9727 92.9062 24.0508 92.7266 24.0508C92.5469 24.0508 92.4102 23.9219 92.3164 23.6641C92.2305 23.4062 92.1875 23.0898 92.1875 22.7148C92.1875 22.3398 92.2383 21.668 92.3398 20.6992C92.4414 19.7383 92.4922 19.0117 92.4922 18.5195C92.4922 17.543 92.1758 17.0547 91.543 17.0547C91.2305 17.0547 90.9961 17.1094 90.8398 17.2188C90.6914 17.3281 90.6172 17.5508 90.6172 17.8867C90.6172 18.2305 90.6875 18.7734 90.8281 19.5156C90.9688 20.2578 91.0391 20.8164 91.0391 21.1914C91.0391 21.5742 90.8945 21.7656 90.6055 21.7656C90.3164 21.7656 90.1719 21.5742 90.1719 21.1914ZM82.3672 5.58203L79.6016 5.66406C78.4688 5.66406 77.7305 5.49609 77.3867 5.16016L77.1406 5.38281C77.4531 5.6875 77.6094 6.07812 77.6094 6.55469V7.33984C77.6094 7.80859 77.4531 8.19922 77.1406 8.51172L77.3867 8.74609C77.7227 8.40234 78.418 8.23047 79.4727 8.23047L82.4375 8.33594C83.2266 8.33594 83.8359 8.23438 84.2656 8.03125C84.7031 7.82031 84.9219 7.4375 84.9219 6.88281C84.9219 6.53125 84.8008 6.25781 84.5586 6.0625C84.3164 5.85938 84.0234 5.73047 83.6797 5.67578C83.3359 5.61328 82.8984 5.58203 82.3672 5.58203ZM105.512 19.2461L105.594 18.1211C105.594 17.9258 105.5 17.7734 105.312 17.6641C105.125 17.5625 104.922 17.5117 104.703 17.5117C104.484 17.5117 104.289 17.5703 104.117 17.6875C103.945 17.8047 103.859 17.9727 103.859 18.1914V20.8867C103.859 21.2773 103.941 21.8516 104.105 22.6094C104.27 23.3672 104.352 23.9062 104.352 24.2266C104.352 24.5547 104.281 24.8242 104.141 25.0352C104 25.2461 103.805 25.3516 103.555 25.3516C103.312 25.3516 103.129 25.2422 103.004 25.0234C102.879 24.8047 102.816 24.5195 102.816 24.168C102.816 23.8164 102.906 23.207 103.086 22.3398C103.266 21.4727 103.355 20.8008 103.355 20.3242C103.355 18.3945 102.996 17.4297 102.277 17.4297C101.309 17.4297 100.824 17.3906 100.824 17.3125V17.3359C100.824 17.875 100.941 18.6641 101.176 19.7031C101.418 20.75 101.539 21.5 101.539 21.9531C101.539 22.4062 101.457 22.7773 101.293 23.0664C101.129 23.3633 100.875 23.5117 100.531 23.5117C100.195 23.5117 99.9297 23.3711 99.7344 23.0898C99.5469 22.8086 99.4531 22.4414 99.4531 21.9883C99.4531 21.543 99.5664 20.7734 99.793 19.6797C100.02 18.5938 100.133 17.7695 100.133 17.207C98.2812 16.6211 96.8867 15.6641 95.9492 14.3359C95.0195 13.0078 94.5547 11.3672 94.5547 9.41406C94.5547 5.36719 96.5938 2.8125 100.672 1.75C101.992 1.40625 103.355 1.23438 104.762 1.23438C106.176 1.23438 107.375 1.3125 108.359 1.46875C109.352 1.625 110.309 1.90234 111.23 2.30078C112.16 2.69141 112.949 3.19141 113.598 3.80078C114.254 4.40234 114.777 5.18359 115.168 6.14453C115.559 7.09766 115.754 8.1875 115.754 9.41406C115.754 11.9141 115.051 13.8516 113.645 15.2266C112.238 16.5938 110.262 17.4336 107.715 17.7461C107.684 17.8008 107.668 17.8867 107.668 18.0039L107.727 18.6484C107.727 19.0469 107.617 19.2461 107.398 19.2461C107.18 19.2461 107.07 19.0547 107.07 18.6719L107.105 18.0156C107.105 17.7812 106.938 17.6641 106.602 17.6641C106.57 17.7344 106.555 17.8672 106.555 18.0625L106.613 19.1992C106.613 19.4336 106.57 19.6602 106.484 19.8789C106.398 20.0977 106.254 20.207 106.051 20.207C105.691 20.207 105.512 19.8867 105.512 19.2461ZM101.082 9.42578C101.082 12.2852 102.441 13.7148 105.16 13.7148C107.879 13.7148 109.238 12.2852 109.238 9.42578C109.238 8.11328 108.887 7.10938 108.184 6.41406C107.48 5.71875 106.473 5.37109 105.16 5.37109C103.848 5.37109 102.84 5.71875 102.137 6.41406C101.434 7.10938 101.082 8.11328 101.082 9.42578ZM137.656 21.1914L137.914 18.7656C137.914 17.7812 137.512 17.0312 136.707 16.5156C135.91 15.9922 135.07 15.7617 134.188 15.8242C133.305 15.8789 132.688 16.1758 132.336 16.7148C132.156 16.9727 132.066 17.2773 132.066 17.6289L132.008 20.7695C132.008 21.1992 132.074 21.8359 132.207 22.6797C132.34 23.5312 132.406 24.1719 132.406 24.6016C132.406 25.3594 132.191 25.7383 131.762 25.7383C131.332 25.7383 131.117 25.3711 131.117 24.6367C131.117 24.1523 131.188 23.457 131.328 22.5508C131.469 21.6445 131.547 20.957 131.562 20.4883C131.586 20.0195 131.598 19.0195 131.598 17.4883C131.598 17.082 131.473 16.6133 131.223 16.082C130.973 15.5508 130.578 14.8203 130.039 13.8906C129.5 12.9609 129.059 12.1406 128.715 11.4297L128.363 11.2305C128.176 11.5742 127.844 11.7461 127.367 11.7461L126.383 11.7812C125.711 11.7812 125.207 11.6172 124.871 11.2891L124.625 11.5234C124.648 11.8125 124.66 12.4297 124.66 13.375L124.648 16.2461C124.648 17.1055 124.664 17.7383 124.695 18.1445L124.918 19.8672C124.918 20.1875 124.809 20.3477 124.59 20.3477C124.371 20.3477 124.262 20.1992 124.262 19.9023L124.449 18.4492C124.449 18.0977 124.344 17.8164 124.133 17.6055C123.93 17.4023 123.66 17.3008 123.324 17.3008C122.996 17.3008 122.703 17.4453 122.445 17.7344C122.195 18.0312 122.07 18.4141 122.07 18.8828C122.07 19.3516 122.156 19.9844 122.328 20.7812C122.5 21.5859 122.586 22.1641 122.586 22.5156C122.586 23.25 122.324 23.6172 121.801 23.6172C121.277 23.6172 121.016 23.2578 121.016 22.5391C121.016 22.2031 121.09 21.6172 121.238 20.7812C121.395 19.9453 121.473 19.2812 121.473 18.7891C121.473 18.2969 121.359 17.8906 121.133 17.5703C120.906 17.2578 120.648 17.1016 120.359 17.1016C120.07 17.1016 119.824 17.1992 119.621 17.3945C119.418 17.5977 119.316 17.8477 119.316 18.1445L119.633 20.9219C119.633 21.3984 119.457 21.6367 119.105 21.6367C118.754 21.6367 118.578 21.3945 118.578 20.9102C118.578 20.6289 118.652 20.1367 118.801 19.4336C118.949 18.7383 119.02 18.1953 119.012 17.8047C119.004 17.4141 119 12.3594 119 2.64062C119 2.15625 118.852 1.76953 118.555 1.48047L118.789 1.24609C119.094 1.54297 119.48 1.69141 119.949 1.69141H130.449C132.09 1.69141 133.191 1.74219 133.754 1.84375C134.324 1.9375 134.82 2.03906 135.242 2.14844C135.672 2.25781 136.031 2.39453 136.32 2.55859C136.617 2.71484 136.914 2.91406 137.211 3.15625C137.516 3.39062 137.758 3.66016 137.938 3.96484C138.352 4.66016 138.559 5.39844 138.559 6.17969C138.559 6.96094 138.496 7.60156 138.371 8.10156C138.254 8.59375 138.055 9.05859 137.773 9.49609C137.164 10.4414 136.094 10.9141 134.562 10.9141L134.469 11.1836C134.961 11.3789 135.289 11.6484 135.453 11.9922C136.141 13.4922 136.648 14.4453 136.977 14.8516C137.305 15.25 137.609 15.5703 137.891 15.8125C138.172 16.0547 138.574 16.3008 139.098 16.5508C139.621 16.8008 139.938 16.9648 140.047 17.043C140.156 17.1133 140.211 17.1719 140.211 17.2188C140.211 18 140.316 19.0039 140.527 20.2305C140.738 21.457 140.844 22.2461 140.844 22.5977C140.844 22.9492 140.828 23.2031 140.797 23.3594C140.773 23.5156 140.715 23.668 140.621 23.8164C140.527 23.9727 140.391 24.0508 140.211 24.0508C140.031 24.0508 139.895 23.9219 139.801 23.6641C139.715 23.4062 139.672 23.0898 139.672 22.7148C139.672 22.3398 139.723 21.668 139.824 20.6992C139.926 19.7383 139.977 19.0117 139.977 18.5195C139.977 17.543 139.66 17.0547 139.027 17.0547C138.715 17.0547 138.48 17.1094 138.324 17.2188C138.176 17.3281 138.102 17.5508 138.102 17.8867C138.102 18.2305 138.172 18.7734 138.312 19.5156C138.453 20.2578 138.523 20.8164 138.523 21.1914C138.523 21.5742 138.379 21.7656 138.09 21.7656C137.801 21.7656 137.656 21.5742 137.656 21.1914ZM129.852 5.58203L127.086 5.66406C125.953 5.66406 125.215 5.49609 124.871 5.16016L124.625 5.38281C124.938 5.6875 125.094 6.07812 125.094 6.55469V7.33984C125.094 7.80859 124.938 8.19922 124.625 8.51172L124.871 8.74609C125.207 8.40234 125.902 8.23047 126.957 8.23047L129.922 8.33594C130.711 8.33594 131.32 8.23438 131.75 8.03125C132.188 7.82031 132.406 7.4375 132.406 6.88281C132.406 6.53125 132.285 6.25781 132.043 6.0625C131.801 5.85938 131.508 5.73047 131.164 5.67578C130.82 5.61328 130.383 5.58203 129.852 5.58203ZM150.078 20.7695L150.195 19.5859V17.3945C148.094 17.2852 146.523 17 145.484 16.5391C144.445 16.0703 143.68 15.4844 143.188 14.7812C142.891 14.3672 142.66 13.9062 142.496 13.3984C142.34 12.8828 142.078 12.4961 141.711 12.2383L141.887 11.9922C142.238 12.2266 142.617 12.3438 143.023 12.3438C143.438 12.3438 143.965 12.3281 144.605 12.2969C145.246 12.2656 145.969 12.2305 146.773 12.1914C147.578 12.1445 148.152 12.1133 148.496 12.0977C148.84 12.082 149.094 12.0352 149.258 11.957C149.422 11.8711 149.539 11.7188 149.609 11.5L150.137 11.6758C150.113 11.7383 150.102 11.8203 150.102 11.9219C150.102 12.1797 150.316 12.4727 150.746 12.8008C151.176 13.1289 151.953 13.293 153.078 13.293C153.836 13.293 154.375 13.1641 154.695 12.9062C154.836 12.7891 154.906 12.6484 154.906 12.4844C154.906 12.1016 154.695 11.8477 154.273 11.7227C153.852 11.5977 153.34 11.4922 152.738 11.4062C152.145 11.3125 151.547 11.2383 150.945 11.1836C150.352 11.1289 149.707 11.0508 149.012 10.9492C148.316 10.8477 147.66 10.7383 147.043 10.6211C146.426 10.4961 145.824 10.3164 145.238 10.082C144.66 9.84766 144.164 9.57422 143.75 9.26172C143.336 8.94141 143 8.53516 142.742 8.04297C142.492 7.54297 142.367 6.97656 142.367 6.34375C142.367 5.71094 142.465 5.13281 142.66 4.60938C142.863 4.08594 143.137 3.63672 143.48 3.26172C143.824 2.88672 144.238 2.55469 144.723 2.26562C145.215 1.97656 145.727 1.74219 146.258 1.5625C146.797 1.38281 147.383 1.23828 148.016 1.12891C149.117 0.925781 150.156 0.824219 151.133 0.824219C152.109 0.824219 152.852 0.839844 153.359 0.871094C153.875 0.894531 154.477 0.945312 155.164 1.02344C155.859 1.09375 156.484 1.21484 157.039 1.38672C157.602 1.55078 158.156 1.76172 158.703 2.01953C159.844 2.55078 160.645 3.375 161.105 4.49219C161.293 4.89062 161.551 5.26172 161.879 5.60547L161.727 5.875C161.398 5.64844 161.02 5.53516 160.59 5.53516H160.438C159.812 5.55859 158.918 5.60547 157.754 5.67578C156.598 5.73828 155.852 5.77734 155.516 5.79297C155.188 5.80859 154.949 5.85547 154.801 5.93359C154.66 6.01172 154.559 6.16016 154.496 6.37891L153.98 6.23828C154.004 6.16797 154.016 6.09375 154.016 6.01562C154.016 5.6875 153.75 5.40625 153.219 5.17188C152.688 4.92969 152.086 4.80859 151.414 4.80859C150.102 4.80859 149.445 5.06641 149.445 5.58203C149.445 6.04297 150.43 6.37891 152.398 6.58984C152.859 6.64453 153.383 6.69922 153.969 6.75391C156.008 6.96484 157.57 7.24219 158.656 7.58594C160.938 8.30469 162.078 9.67578 162.078 11.6992C162.078 12.5273 161.906 13.2734 161.562 13.9375C161.219 14.5938 160.77 15.1289 160.215 15.543C159.668 15.957 159.02 16.3008 158.27 16.5742C156.918 17.0664 155.375 17.3125 153.641 17.3125C153.172 17.3125 152.895 17.3086 152.809 17.3008C152.387 17.3008 152.176 17.625 152.176 18.2734V18.5547C152.176 18.7656 152.227 19.0742 152.328 19.4805C152.438 19.8945 152.492 20.2031 152.492 20.4062C152.492 20.8203 152.348 21.0273 152.059 21.0273C151.91 21.0273 151.793 20.9648 151.707 20.8398C151.629 20.7148 151.59 20.5586 151.59 20.3711C151.59 20.1836 151.637 19.8633 151.73 19.4102C151.832 18.9648 151.883 18.6406 151.883 18.4375C151.883 18.2344 151.879 18.0898 151.871 18.0039C151.871 17.9258 151.859 17.8242 151.836 17.6992C151.82 17.582 151.789 17.4961 151.742 17.4414C151.633 17.3008 151.445 17.2305 151.18 17.2305C150.695 17.2305 150.453 17.6523 150.453 18.4961L150.523 20.418C150.523 20.9336 150.449 21.1914 150.301 21.1914C150.152 21.1914 150.078 21.0508 150.078 20.7695ZM171.395 23.1953L171.617 17.6289C169.234 17.293 167.398 16.4336 166.109 15.0508C164.828 13.668 164.188 11.7812 164.188 9.39062C164.188 6.84375 165.023 4.88672 166.695 3.51953C168.539 1.99609 171.277 1.23438 174.91 1.23438C180.73 1.23438 183.984 2.90625 184.672 6.25C184.766 6.73438 184.973 7.10547 185.293 7.36328L185.094 7.62109C184.719 7.33984 184.312 7.21875 183.875 7.25781L179.363 7.53906C178.84 7.57812 178.5 7.76953 178.344 8.11328L177.957 7.92578C178.035 7.75391 178.074 7.60547 178.074 7.48047C178.074 7.07422 177.938 6.72266 177.664 6.42578C177.398 6.12109 177.059 5.89453 176.645 5.74609C175.84 5.45703 175.059 5.3125 174.301 5.3125C173.145 5.3125 172.242 5.70703 171.594 6.49609C170.953 7.27734 170.633 8.29688 170.633 9.55469C170.633 10.8047 170.996 11.8281 171.723 12.625C172.457 13.4141 173.484 13.8086 174.805 13.8086C175.227 13.8086 175.695 13.707 176.211 13.5039C176.734 13.293 177.195 12.9922 177.594 12.6016C178 12.2109 178.203 11.7969 178.203 11.3594C178.203 11.2344 178.16 11.0781 178.074 10.8906L178.461 10.6914C178.648 11.043 178.949 11.2344 179.363 11.2656C179.785 11.2969 180.328 11.3398 180.992 11.3945C182.453 11.5273 183.469 11.5938 184.039 11.5938C184.609 11.5938 185.059 11.4727 185.387 11.2305L185.574 11.4766C185.285 11.6953 185.066 12.1016 184.918 12.6953C184.777 13.2812 184.5 13.8477 184.086 14.3945C183.672 14.9336 183.203 15.3828 182.68 15.7422C182.164 16.0938 181.562 16.4023 180.875 16.668C179.695 17.1367 178.402 17.4688 176.996 17.6641C176.996 18.3828 177.09 19.4492 177.277 20.8633C177.465 22.2773 177.559 23.2188 177.559 23.6875C177.559 24.1562 177.5 24.4844 177.383 24.6719C177.273 24.8594 177.109 24.9531 176.891 24.9531C176.672 24.9531 176.504 24.8594 176.387 24.6719C176.27 24.4844 176.211 24.1836 176.211 23.7695C176.211 23.3633 176.273 22.5703 176.398 21.3906C176.531 20.2109 176.598 19.4219 176.598 19.0234C176.598 18.625 176.578 18.3555 176.539 18.2148C176.5 18.0742 176.453 17.9648 176.398 17.8867C176.344 17.8164 176.25 17.7617 176.117 17.7227C175.812 17.6445 175.445 17.625 175.016 17.6641C174.156 17.7344 173.727 17.8789 173.727 18.0977L174.008 21.2852C174.008 21.793 173.859 22.0469 173.562 22.0469C173.266 22.0469 173.117 21.832 173.117 21.4023C173.117 20.9727 173.168 20.4023 173.27 19.6914C173.379 18.9805 173.434 18.4688 173.434 18.1562C173.434 17.8516 173.332 17.6992 173.129 17.6992C172.73 17.6992 172.461 17.7422 172.32 17.8281C172.188 17.9141 172.121 17.9922 172.121 18.0625L172.25 23.1367C172.25 23.2695 172.207 23.3867 172.121 23.4883C172.035 23.5977 171.93 23.6523 171.805 23.6523C171.68 23.6523 171.578 23.6055 171.5 23.5117C171.43 23.4258 171.395 23.3203 171.395 23.1953ZM197.996 19.2461L198.078 18.1211C198.078 17.9258 197.984 17.7734 197.797 17.6641C197.609 17.5625 197.406 17.5117 197.188 17.5117C196.969 17.5117 196.773 17.5703 196.602 17.6875C196.43 17.8047 196.344 17.9727 196.344 18.1914V20.8867C196.344 21.2773 196.426 21.8516 196.59 22.6094C196.754 23.3672 196.836 23.9062 196.836 24.2266C196.836 24.5547 196.766 24.8242 196.625 25.0352C196.484 25.2461 196.289 25.3516 196.039 25.3516C195.797 25.3516 195.613 25.2422 195.488 25.0234C195.363 24.8047 195.301 24.5195 195.301 24.168C195.301 23.8164 195.391 23.207 195.57 22.3398C195.75 21.4727 195.84 20.8008 195.84 20.3242C195.84 18.3945 195.48 17.4297 194.762 17.4297C193.793 17.4297 193.309 17.3906 193.309 17.3125V17.3359C193.309 17.875 193.426 18.6641 193.66 19.7031C193.902 20.75 194.023 21.5 194.023 21.9531C194.023 22.4062 193.941 22.7773 193.777 23.0664C193.613 23.3633 193.359 23.5117 193.016 23.5117C192.68 23.5117 192.414 23.3711 192.219 23.0898C192.031 22.8086 191.938 22.4414 191.938 21.9883C191.938 21.543 192.051 20.7734 192.277 19.6797C192.504 18.5938 192.617 17.7695 192.617 17.207C190.766 16.6211 189.371 15.6641 188.434 14.3359C187.504 13.0078 187.039 11.3672 187.039 9.41406C187.039 5.36719 189.078 2.8125 193.156 1.75C194.477 1.40625 195.84 1.23438 197.246 1.23438C198.66 1.23438 199.859 1.3125 200.844 1.46875C201.836 1.625 202.793 1.90234 203.715 2.30078C204.645 2.69141 205.434 3.19141 206.082 3.80078C206.738 4.40234 207.262 5.18359 207.652 6.14453C208.043 7.09766 208.238 8.1875 208.238 9.41406C208.238 11.9141 207.535 13.8516 206.129 15.2266C204.723 16.5938 202.746 17.4336 200.199 17.7461C200.168 17.8008 200.152 17.8867 200.152 18.0039L200.211 18.6484C200.211 19.0469 200.102 19.2461 199.883 19.2461C199.664 19.2461 199.555 19.0547 199.555 18.6719L199.59 18.0156C199.59 17.7812 199.422 17.6641 199.086 17.6641C199.055 17.7344 199.039 17.8672 199.039 18.0625L199.098 19.1992C199.098 19.4336 199.055 19.6602 198.969 19.8789C198.883 20.0977 198.738 20.207 198.535 20.207C198.176 20.207 197.996 19.8867 197.996 19.2461ZM193.566 9.42578C193.566 12.2852 194.926 13.7148 197.645 13.7148C200.363 13.7148 201.723 12.2852 201.723 9.42578C201.723 8.11328 201.371 7.10938 200.668 6.41406C199.965 5.71875 198.957 5.37109 197.645 5.37109C196.332 5.37109 195.324 5.71875 194.621 6.41406C193.918 7.10938 193.566 8.11328 193.566 9.42578ZM211.508 18.7773L211.484 16.3984V2.64062C211.484 2.16406 211.336 1.77734 211.039 1.48047L211.273 1.24609C211.57 1.54297 211.957 1.69141 212.434 1.69141H222.547C224.164 1.69141 225.258 1.73828 225.828 1.83203C226.406 1.92578 226.91 2.03125 227.34 2.14844C227.77 2.25781 228.129 2.39062 228.418 2.54688C228.707 2.70312 229.004 2.90234 229.309 3.14453C229.613 3.38672 229.855 3.66016 230.035 3.96484C230.449 4.66797 230.656 5.45703 230.656 6.33203C230.656 7.19922 230.559 7.94141 230.363 8.55859C230.176 9.16797 229.871 9.71484 229.449 10.1992C228.574 11.2148 227.086 11.7227 224.984 11.7227H218.527C218.043 11.7227 217.652 11.5742 217.355 11.2773L217.109 11.5C217.422 11.8125 217.578 12.2031 217.578 12.6719V16.3984C217.578 17 217.57 17.7383 217.555 18.6133L217.027 18.6602C216.926 17.7852 216.793 17.3477 216.629 17.3477H212.434C212.34 17.3477 212.262 17.5352 212.199 17.9102C212.145 18.293 212.117 18.6562 212.117 19C212.117 19.3516 212.191 19.9453 212.34 20.7812C212.488 21.6172 212.562 22.2031 212.562 22.5391C212.562 23.2578 212.301 23.6172 211.777 23.6172C211.254 23.6172 210.992 23.25 210.992 22.5156C210.992 22.1641 211.078 21.543 211.25 20.6523C211.422 19.7617 211.508 19.1367 211.508 18.7773ZM217.578 6.55469V7.24609C217.578 7.70703 217.422 8.09375 217.109 8.40625L217.355 8.65234C217.66 8.34766 218.051 8.19531 218.527 8.19531H222.324C223.113 8.19531 223.586 8.15234 223.742 8.06641C223.898 7.97266 224.031 7.87891 224.141 7.78516C224.328 7.61328 224.422 7.36719 224.422 7.04688C224.422 6.72656 224.387 6.49219 224.316 6.34375C224.254 6.1875 224.16 6.06641 224.035 5.98047C223.91 5.89453 223.785 5.82422 223.66 5.76953C223.535 5.71484 223.383 5.67578 223.203 5.65234C222.953 5.62109 222.676 5.60547 222.371 5.60547H218.527C218.043 5.60547 217.652 5.45703 217.355 5.16016L217.109 5.38281C217.422 5.69531 217.578 6.08594 217.578 6.55469ZM214.766 18.1445L215.07 20.9219C215.07 21.3984 214.895 21.6367 214.543 21.6367C214.199 21.6367 214.027 21.3945 214.027 20.9102C214.027 20.6289 214.098 20.1367 214.238 19.4336C214.387 18.7383 214.461 18.2812 214.461 18.0625C214.461 17.8516 214.457 17.5781 214.449 17.2422C214.449 16.9062 214.449 16.625 214.449 16.3984L214.977 17.0195C214.922 17.0195 214.871 17.1445 214.824 17.3945C214.785 17.6523 214.766 17.9023 214.766 18.1445ZM240.16 15.4023L239.973 13.9492V13.8203C240.137 13.5312 240.359 13.3867 240.641 13.3867L250.203 13.3984C250.68 13.3984 251.066 13.2461 251.363 12.9414L251.598 13.1758C251.254 13.5195 251.082 14.1758 251.082 15.1445C251.082 15.1445 251.082 15.3711 251.082 15.8242C251.082 16.6133 251.254 17.1875 251.598 17.5469L251.363 17.7812C251.059 17.4766 250.672 17.3242 250.203 17.3242H236.34C235.645 17.3242 235.133 17.457 234.805 17.7227C234.43 18.0352 234.242 18.918 234.242 20.3711C234.242 20.957 234.332 21.8203 234.512 22.9609C234.691 24.1094 234.781 24.9727 234.781 25.5508C234.781 26.3867 234.484 26.8047 233.891 26.8047C233.25 26.8047 232.93 26.375 232.93 25.5156C232.93 24.9297 233.059 24.0625 233.316 22.9141C233.574 21.7656 233.703 20.8945 233.703 20.3008L233.645 16.375V2.71094C233.645 2.22656 233.496 1.83984 233.199 1.55078L233.434 1.30469C233.754 1.60938 234.145 1.76172 234.605 1.76172H249.652C250.129 1.76172 250.52 1.60938 250.824 1.30469L251.059 1.55078C250.715 1.89453 250.543 2.54297 250.543 3.49609V4.15234C250.543 4.98828 250.715 5.57422 251.059 5.91016L250.824 6.13281C250.434 5.73438 249.516 5.53516 248.07 5.53516L242.246 5.80469C240.809 5.80469 239.895 5.60547 239.504 5.20703L239.258 5.44141C239.562 5.73828 239.715 6.13281 239.715 6.625C239.715 7.10938 239.562 7.5 239.258 7.79688L239.504 8.01953C239.879 7.62891 240.668 7.43359 241.871 7.43359L246.781 7.70312C247.992 7.70312 248.793 7.50781 249.184 7.11719L249.43 7.35156C249.086 7.69531 248.914 8.35547 248.914 9.33203V9.98828C248.914 10.793 249.086 11.375 249.43 11.7344L249.184 11.9805C248.809 11.5898 248.016 11.3945 246.805 11.3945L241.895 11.6523C240.691 11.6523 239.895 11.457 239.504 11.0664L239.27 11.3008C239.504 11.5352 239.641 11.8164 239.68 12.1445C239.719 12.4648 239.742 12.6953 239.75 12.8359C239.758 12.9688 239.758 13.1797 239.75 13.4688C239.742 13.75 239.738 13.918 239.738 13.9727L239.539 15.3789C239.539 15.6602 239.641 15.8008 239.844 15.8008C240.055 15.8008 240.16 15.668 240.16 15.4023Z" fill="#8B0000"/>
</svg>
