<svg width="210" height="22" viewBox="0 0 210 22" fill="none" xmlns="http://www.w3.org/2000/svg">
<path d="M11.2754 4.48828L11.4316 2.26172C11.4316 1.59766 11.2786 1.11263 10.9727 0.806641L11.168 0.601562C11.4349 0.861979 11.7604 0.992188 12.1445 0.992188H15.5918C15.9824 0.992188 16.3079 0.861979 16.5684 0.601562L16.7637 0.806641C16.5098 1.06055 16.3828 1.38607 16.3828 1.7832V13.209C16.3828 13.5996 16.5098 13.9251 16.7637 14.1855L16.5684 14.3809C16.3145 14.127 15.9889 14 15.5918 14H12.1445C11.7474 14 11.4219 14.127 11.168 14.3809L10.9727 14.1855C11.2201 13.9382 11.3438 13.6126 11.3438 13.209L11.3242 9.92773C11.3242 9.53711 11.4479 9.21484 11.6953 8.96094L11.5 8.76562C11.2526 9.01302 10.9271 9.13672 10.5234 9.13672H6.51953C6.1224 9.13672 5.79688 9.01302 5.54297 8.76562L5.34766 8.96094C5.36068 9.11068 5.36719 9.89844 5.36719 11.3242V15.7285C5.36719 16.321 5.44206 17.1608 5.5918 18.248C5.74154 19.3353 5.81641 20.1035 5.81641 20.5527C5.81641 21.002 5.76107 21.3079 5.65039 21.4707C5.54622 21.6335 5.41927 21.7148 5.26953 21.7148C5.11979 21.7148 4.98958 21.6335 4.87891 21.4707C4.77474 21.3145 4.72266 21.1517 4.72266 20.9824C4.72266 20.8197 4.75521 20.4388 4.82031 19.8398C5.01562 18.0299 5.11328 16.6693 5.11328 15.7578C5.11328 15.3086 4.97656 14.918 4.70312 14.5859C4.16927 13.9414 3.43685 13.6191 2.50586 13.6191C2.0306 13.6191 1.63021 13.7298 1.30469 13.9512C0.985677 14.1725 0.826172 14.4785 0.826172 14.8691C0.826172 15.2663 0.888021 15.8457 1.01172 16.6074C1.14193 17.3691 1.20703 17.8965 1.20703 18.1895C1.20703 18.7949 1.01823 19.0977 0.640625 19.0977C0.464844 19.0977 0.315104 19.0293 0.191406 18.8926C0.0677083 18.7624 0.00585938 18.5443 0.00585938 18.2383C0.00585938 17.9388 0.110026 17.3984 0.318359 16.6172C0.533203 15.8359 0.640625 15.2272 0.640625 14.791V1.7832C0.640625 1.37305 0.516927 1.04753 0.269531 0.806641L0.455078 0.601562C0.722005 0.861979 1.04753 0.992188 1.43164 0.992188H4.9375C5.32161 0.992188 5.64388 0.861979 5.9043 0.601562L6.10938 0.806641C5.8099 1.10612 5.66016 1.5944 5.66016 2.27148L5.80664 4.51758C5.80664 5.18815 5.65365 5.67643 5.34766 5.98242L5.54297 6.1875C5.79688 5.93359 6.1224 5.80664 6.51953 5.80664H10.5625C10.9596 5.80664 11.2819 5.93359 11.5293 6.1875L11.7344 5.98242C11.4284 5.66992 11.2754 5.17188 11.2754 4.48828ZM28.0137 15.582L28.082 14.6445C28.082 14.4818 28.0039 14.3548 27.8477 14.2637C27.6914 14.179 27.5221 14.1367 27.3398 14.1367C27.1576 14.1367 26.9948 14.1855 26.8516 14.2832C26.7083 14.3809 26.6367 14.5208 26.6367 14.7031V16.9492C26.6367 17.2747 26.7051 17.7533 26.8418 18.3848C26.9785 19.0163 27.0469 19.4655 27.0469 19.7324C27.0469 20.0059 26.9883 20.2305 26.8711 20.4062C26.7539 20.582 26.5911 20.6699 26.3828 20.6699C26.181 20.6699 26.028 20.5788 25.9238 20.3965C25.8197 20.2142 25.7676 19.9766 25.7676 19.6836C25.7676 19.3906 25.8424 18.8828 25.9922 18.1602C26.1419 17.4375 26.2168 16.8776 26.2168 16.4805C26.2168 14.8724 25.9173 14.0684 25.3184 14.0684C24.5111 14.0684 24.1074 14.0358 24.1074 13.9707V13.9902C24.1074 14.4395 24.2051 15.097 24.4004 15.9629C24.6022 16.8353 24.7031 17.4603 24.7031 17.8379C24.7031 18.2155 24.6348 18.5247 24.498 18.7656C24.3613 19.013 24.1497 19.1367 23.8633 19.1367C23.5833 19.1367 23.362 19.0195 23.1992 18.7852C23.043 18.5508 22.9648 18.2448 22.9648 17.8672C22.9648 17.4961 23.0592 16.8548 23.248 15.9434C23.4368 15.0384 23.5312 14.3516 23.5312 13.8828C21.9883 13.3945 20.8262 12.597 20.0449 11.4902C19.2702 10.3835 18.8828 9.01628 18.8828 7.38867C18.8828 4.01628 20.582 1.88737 23.9805 1.00195C25.0807 0.715495 26.2168 0.572266 27.3887 0.572266C28.5671 0.572266 29.5664 0.63737 30.3867 0.767578C31.2135 0.897786 32.0111 1.12891 32.7793 1.46094C33.554 1.78646 34.2116 2.20312 34.752 2.71094C35.2988 3.21224 35.735 3.86328 36.0605 4.66406C36.3861 5.45833 36.5488 6.36654 36.5488 7.38867C36.5488 9.47201 35.9629 11.0866 34.791 12.2324C33.6191 13.3717 31.972 14.0716 29.8496 14.332C29.8236 14.3776 29.8105 14.4492 29.8105 14.5469L29.8594 15.084C29.8594 15.416 29.7682 15.582 29.5859 15.582C29.4036 15.582 29.3125 15.4225 29.3125 15.1035L29.3418 14.5566C29.3418 14.3613 29.2018 14.2637 28.9219 14.2637C28.8958 14.3223 28.8828 14.4329 28.8828 14.5957L28.9316 15.543C28.9316 15.7383 28.8958 15.9271 28.8242 16.1094C28.7526 16.2917 28.6322 16.3828 28.4629 16.3828C28.1634 16.3828 28.0137 16.1159 28.0137 15.582ZM24.3223 7.39844C24.3223 9.78125 25.4551 10.9727 27.7207 10.9727C29.9863 10.9727 31.1191 9.78125 31.1191 7.39844C31.1191 6.30469 30.8262 5.4681 30.2402 4.88867C29.6543 4.30924 28.8145 4.01953 27.7207 4.01953C26.627 4.01953 25.7871 4.30924 25.2012 4.88867C24.6152 5.4681 24.3223 6.30469 24.3223 7.39844ZM54.8008 17.2031L55.0156 15.1816C55.0156 14.3613 54.6803 13.7363 54.0098 13.3066C53.3457 12.8704 52.6458 12.6784 51.9102 12.7305C51.1745 12.776 50.6602 13.0234 50.3672 13.4727C50.2174 13.6875 50.1426 13.9414 50.1426 14.2344L50.0938 16.8516C50.0938 17.2096 50.1491 17.7402 50.2598 18.4434C50.3704 19.153 50.4258 19.6868 50.4258 20.0449C50.4258 20.6764 50.2467 20.9922 49.8887 20.9922C49.5306 20.9922 49.3516 20.6862 49.3516 20.0742C49.3516 19.6706 49.4102 19.0911 49.5273 18.3359C49.6445 17.5807 49.7096 17.0078 49.7227 16.6172C49.7422 16.2266 49.752 15.3932 49.752 14.1172C49.752 13.7786 49.6478 13.388 49.4395 12.9453C49.2311 12.5026 48.9023 11.8939 48.4531 11.1191C48.0039 10.3444 47.6361 9.66081 47.3496 9.06836L47.0566 8.90234C46.9004 9.1888 46.6237 9.33203 46.2266 9.33203L45.4062 9.36133C44.8464 9.36133 44.4264 9.22461 44.1465 8.95117L43.9414 9.14648C43.9609 9.38737 43.9707 9.90169 43.9707 10.6895L43.9609 13.082C43.9609 13.7982 43.974 14.3255 44 14.6641L44.1855 16.0996C44.1855 16.3665 44.0944 16.5 43.9121 16.5C43.7298 16.5 43.6387 16.3763 43.6387 16.1289L43.7949 14.918C43.7949 14.625 43.707 14.3906 43.5312 14.2148C43.362 14.0456 43.1374 13.9609 42.8574 13.9609C42.584 13.9609 42.3398 14.0814 42.125 14.3223C41.9167 14.5697 41.8125 14.8887 41.8125 15.2793C41.8125 15.6699 41.8841 16.1973 42.0273 16.8613C42.1706 17.5319 42.2422 18.0137 42.2422 18.3066C42.2422 18.9186 42.0241 19.2246 41.5879 19.2246C41.1517 19.2246 40.9336 18.9251 40.9336 18.3262C40.9336 18.0462 40.9954 17.5579 41.1191 16.8613C41.2493 16.1647 41.3145 15.6113 41.3145 15.2012C41.3145 14.791 41.2201 14.4525 41.0312 14.1855C40.8424 13.9251 40.6276 13.7949 40.3867 13.7949C40.1458 13.7949 39.9408 13.8763 39.7715 14.0391C39.6022 14.2083 39.5176 14.4167 39.5176 14.6641L39.7812 16.9785C39.7812 17.3757 39.6348 17.5742 39.3418 17.5742C39.0488 17.5742 38.9023 17.3724 38.9023 16.9688C38.9023 16.7344 38.9642 16.3242 39.0879 15.7383C39.2116 15.1589 39.2702 14.7064 39.2637 14.3809C39.2572 14.0553 39.2539 9.8431 39.2539 1.74414C39.2539 1.34049 39.1302 1.01823 38.8828 0.777344L39.0781 0.582031C39.332 0.829427 39.6543 0.953125 40.0449 0.953125H48.7949C50.1621 0.953125 51.0801 0.995443 51.5488 1.08008C52.0241 1.1582 52.4375 1.24284 52.7891 1.33398C53.1471 1.42513 53.4466 1.53906 53.6875 1.67578C53.9349 1.80599 54.1823 1.97201 54.4297 2.17383C54.6836 2.36914 54.8854 2.59375 55.0352 2.84766C55.3802 3.42708 55.5527 4.04232 55.5527 4.69336C55.5527 5.3444 55.5007 5.87826 55.3965 6.29492C55.2988 6.70508 55.1328 7.09245 54.8984 7.45703C54.3906 8.24479 53.4987 8.63867 52.2227 8.63867L52.1445 8.86328C52.5547 9.02604 52.8281 9.25065 52.9648 9.53711C53.5378 10.7871 53.9609 11.5814 54.2344 11.9199C54.5078 12.252 54.7617 12.5189 54.9961 12.7207C55.2305 12.9225 55.5658 13.1276 56.002 13.3359C56.4382 13.5443 56.7018 13.681 56.793 13.7461C56.8841 13.8047 56.9297 13.8535 56.9297 13.8926C56.9297 14.5436 57.0176 15.3802 57.1934 16.4023C57.3691 17.4245 57.457 18.082 57.457 18.375C57.457 18.668 57.444 18.8796 57.418 19.0098C57.3984 19.14 57.3496 19.2669 57.2715 19.3906C57.1934 19.5208 57.0794 19.5859 56.9297 19.5859C56.7799 19.5859 56.666 19.4785 56.5879 19.2637C56.5163 19.0488 56.4805 18.7852 56.4805 18.4727C56.4805 18.1602 56.5228 17.6003 56.6074 16.793C56.6921 15.9922 56.7344 15.3867 56.7344 14.9766C56.7344 14.1628 56.4707 13.7559 55.9434 13.7559C55.6829 13.7559 55.4876 13.8014 55.3574 13.8926C55.2337 13.9837 55.1719 14.1693 55.1719 14.4492C55.1719 14.7357 55.2305 15.1882 55.3477 15.8066C55.4648 16.4251 55.5234 16.8906 55.5234 17.2031C55.5234 17.5221 55.403 17.6816 55.1621 17.6816C54.9212 17.6816 54.8008 17.5221 54.8008 17.2031ZM48.2969 4.19531L45.9922 4.26367C45.0482 4.26367 44.4329 4.1237 44.1465 3.84375L43.9414 4.0293C44.2018 4.2832 44.332 4.60872 44.332 5.00586V5.66016C44.332 6.05078 44.2018 6.3763 43.9414 6.63672L44.1465 6.83203C44.4264 6.54557 45.0059 6.40234 45.8848 6.40234L48.3555 6.49023C49.013 6.49023 49.5208 6.4056 49.8789 6.23633C50.2435 6.06055 50.4258 5.74154 50.4258 5.2793C50.4258 4.98633 50.3249 4.75846 50.123 4.5957C49.9212 4.42643 49.6771 4.31901 49.3906 4.27344C49.1042 4.22135 48.7396 4.19531 48.2969 4.19531ZM74.9766 17.2031L75.1914 15.1816C75.1914 14.3613 74.8561 13.7363 74.1855 13.3066C73.5215 12.8704 72.8216 12.6784 72.0859 12.7305C71.3503 12.776 70.8359 13.0234 70.543 13.4727C70.3932 13.6875 70.3184 13.9414 70.3184 14.2344L70.2695 16.8516C70.2695 17.2096 70.3249 17.7402 70.4355 18.4434C70.5462 19.153 70.6016 19.6868 70.6016 20.0449C70.6016 20.6764 70.4225 20.9922 70.0645 20.9922C69.7064 20.9922 69.5273 20.6862 69.5273 20.0742C69.5273 19.6706 69.5859 19.0911 69.7031 18.3359C69.8203 17.5807 69.8854 17.0078 69.8984 16.6172C69.918 16.2266 69.9277 15.3932 69.9277 14.1172C69.9277 13.7786 69.8236 13.388 69.6152 12.9453C69.4069 12.5026 69.0781 11.8939 68.6289 11.1191C68.1797 10.3444 67.8118 9.66081 67.5254 9.06836L67.2324 8.90234C67.0762 9.1888 66.7995 9.33203 66.4023 9.33203L65.582 9.36133C65.0221 9.36133 64.6022 9.22461 64.3223 8.95117L64.1172 9.14648C64.1367 9.38737 64.1465 9.90169 64.1465 10.6895L64.1367 13.082C64.1367 13.7982 64.1497 14.3255 64.1758 14.6641L64.3613 16.0996C64.3613 16.3665 64.2702 16.5 64.0879 16.5C63.9056 16.5 63.8145 16.3763 63.8145 16.1289L63.9707 14.918C63.9707 14.625 63.8828 14.3906 63.707 14.2148C63.5378 14.0456 63.3132 13.9609 63.0332 13.9609C62.7598 13.9609 62.5156 14.0814 62.3008 14.3223C62.0924 14.5697 61.9883 14.8887 61.9883 15.2793C61.9883 15.6699 62.0599 16.1973 62.2031 16.8613C62.3464 17.5319 62.418 18.0137 62.418 18.3066C62.418 18.9186 62.1999 19.2246 61.7637 19.2246C61.3275 19.2246 61.1094 18.9251 61.1094 18.3262C61.1094 18.0462 61.1712 17.5579 61.2949 16.8613C61.4251 16.1647 61.4902 15.6113 61.4902 15.2012C61.4902 14.791 61.3958 14.4525 61.207 14.1855C61.0182 13.9251 60.8034 13.7949 60.5625 13.7949C60.3216 13.7949 60.1165 13.8763 59.9473 14.0391C59.778 14.2083 59.6934 14.4167 59.6934 14.6641L59.957 16.9785C59.957 17.3757 59.8105 17.5742 59.5176 17.5742C59.2246 17.5742 59.0781 17.3724 59.0781 16.9688C59.0781 16.7344 59.14 16.3242 59.2637 15.7383C59.3874 15.1589 59.446 14.7064 59.4395 14.3809C59.4329 14.0553 59.4297 9.8431 59.4297 1.74414C59.4297 1.34049 59.306 1.01823 59.0586 0.777344L59.2539 0.582031C59.5078 0.829427 59.8301 0.953125 60.2207 0.953125H68.9707C70.3379 0.953125 71.2559 0.995443 71.7246 1.08008C72.1999 1.1582 72.6133 1.24284 72.9648 1.33398C73.3229 1.42513 73.6224 1.53906 73.8633 1.67578C74.1107 1.80599 74.3581 1.97201 74.6055 2.17383C74.8594 2.36914 75.0612 2.59375 75.2109 2.84766C75.556 3.42708 75.7285 4.04232 75.7285 4.69336C75.7285 5.3444 75.6764 5.87826 75.5723 6.29492C75.4746 6.70508 75.3086 7.09245 75.0742 7.45703C74.5664 8.24479 73.6745 8.63867 72.3984 8.63867L72.3203 8.86328C72.7305 9.02604 73.0039 9.25065 73.1406 9.53711C73.7135 10.7871 74.1367 11.5814 74.4102 11.9199C74.6836 12.252 74.9375 12.5189 75.1719 12.7207C75.4062 12.9225 75.7415 13.1276 76.1777 13.3359C76.6139 13.5443 76.8776 13.681 76.9688 13.7461C77.0599 13.8047 77.1055 13.8535 77.1055 13.8926C77.1055 14.5436 77.1934 15.3802 77.3691 16.4023C77.5449 17.4245 77.6328 18.082 77.6328 18.375C77.6328 18.668 77.6198 18.8796 77.5938 19.0098C77.5742 19.14 77.5254 19.2669 77.4473 19.3906C77.3691 19.5208 77.2552 19.5859 77.1055 19.5859C76.9557 19.5859 76.8418 19.4785 76.7637 19.2637C76.6921 19.0488 76.6562 18.7852 76.6562 18.4727C76.6562 18.1602 76.6986 17.6003 76.7832 16.793C76.8678 15.9922 76.9102 15.3867 76.9102 14.9766C76.9102 14.1628 76.6465 13.7559 76.1191 13.7559C75.8587 13.7559 75.6634 13.8014 75.5332 13.8926C75.4095 13.9837 75.3477 14.1693 75.3477 14.4492C75.3477 14.7357 75.4062 15.1882 75.5234 15.8066C75.6406 16.4251 75.6992 16.8906 75.6992 17.2031C75.6992 17.5221 75.5788 17.6816 75.3379 17.6816C75.097 17.6816 74.9766 17.5221 74.9766 17.2031ZM68.4727 4.19531L66.168 4.26367C65.224 4.26367 64.6087 4.1237 64.3223 3.84375L64.1172 4.0293C64.3776 4.2832 64.5078 4.60872 64.5078 5.00586V5.66016C64.5078 6.05078 64.3776 6.3763 64.1172 6.63672L64.3223 6.83203C64.6022 6.54557 65.1816 6.40234 66.0605 6.40234L68.5312 6.49023C69.1888 6.49023 69.6966 6.4056 70.0547 6.23633C70.4193 6.06055 70.6016 5.74154 70.6016 5.2793C70.6016 4.98633 70.5007 4.75846 70.2988 4.5957C70.097 4.42643 69.8529 4.31901 69.5664 4.27344C69.2799 4.22135 68.9154 4.19531 68.4727 4.19531ZM87.7598 15.582L87.8281 14.6445C87.8281 14.4818 87.75 14.3548 87.5938 14.2637C87.4375 14.179 87.2682 14.1367 87.0859 14.1367C86.9036 14.1367 86.7409 14.1855 86.5977 14.2832C86.4544 14.3809 86.3828 14.5208 86.3828 14.7031V16.9492C86.3828 17.2747 86.4512 17.7533 86.5879 18.3848C86.7246 19.0163 86.793 19.4655 86.793 19.7324C86.793 20.0059 86.7344 20.2305 86.6172 20.4062C86.5 20.582 86.3372 20.6699 86.1289 20.6699C85.9271 20.6699 85.7741 20.5788 85.6699 20.3965C85.5658 20.2142 85.5137 19.9766 85.5137 19.6836C85.5137 19.3906 85.5885 18.8828 85.7383 18.1602C85.888 17.4375 85.9629 16.8776 85.9629 16.4805C85.9629 14.8724 85.6634 14.0684 85.0645 14.0684C84.2572 14.0684 83.8535 14.0358 83.8535 13.9707V13.9902C83.8535 14.4395 83.9512 15.097 84.1465 15.9629C84.3483 16.8353 84.4492 17.4603 84.4492 17.8379C84.4492 18.2155 84.3809 18.5247 84.2441 18.7656C84.1074 19.013 83.8958 19.1367 83.6094 19.1367C83.3294 19.1367 83.1081 19.0195 82.9453 18.7852C82.7891 18.5508 82.7109 18.2448 82.7109 17.8672C82.7109 17.4961 82.8053 16.8548 82.9941 15.9434C83.1829 15.0384 83.2773 14.3516 83.2773 13.8828C81.7344 13.3945 80.5723 12.597 79.791 11.4902C79.0163 10.3835 78.6289 9.01628 78.6289 7.38867C78.6289 4.01628 80.3281 1.88737 83.7266 1.00195C84.8268 0.715495 85.9629 0.572266 87.1348 0.572266C88.3132 0.572266 89.3125 0.63737 90.1328 0.767578C90.9596 0.897786 91.7572 1.12891 92.5254 1.46094C93.3001 1.78646 93.9577 2.20312 94.498 2.71094C95.0449 3.21224 95.4811 3.86328 95.8066 4.66406C96.1322 5.45833 96.2949 6.36654 96.2949 7.38867C96.2949 9.47201 95.709 11.0866 94.5371 12.2324C93.3652 13.3717 91.7181 14.0716 89.5957 14.332C89.5697 14.3776 89.5566 14.4492 89.5566 14.5469L89.6055 15.084C89.6055 15.416 89.5143 15.582 89.332 15.582C89.1497 15.582 89.0586 15.4225 89.0586 15.1035L89.0879 14.5566C89.0879 14.3613 88.9479 14.2637 88.668 14.2637C88.6419 14.3223 88.6289 14.4329 88.6289 14.5957L88.6777 15.543C88.6777 15.7383 88.6419 15.9271 88.5703 16.1094C88.4987 16.2917 88.3783 16.3828 88.209 16.3828C87.9095 16.3828 87.7598 16.1159 87.7598 15.582ZM84.0684 7.39844C84.0684 9.78125 85.2012 10.9727 87.4668 10.9727C89.7324 10.9727 90.8652 9.78125 90.8652 7.39844C90.8652 6.30469 90.5723 5.4681 89.9863 4.88867C89.4004 4.30924 88.5605 4.01953 87.4668 4.01953C86.373 4.01953 85.5332 4.30924 84.9473 4.88867C84.3613 5.4681 84.0684 6.30469 84.0684 7.39844ZM114.547 17.2031L114.762 15.1816C114.762 14.3613 114.426 13.7363 113.756 13.3066C113.092 12.8704 112.392 12.6784 111.656 12.7305C110.921 12.776 110.406 13.0234 110.113 13.4727C109.964 13.6875 109.889 13.9414 109.889 14.2344L109.84 16.8516C109.84 17.2096 109.895 17.7402 110.006 18.4434C110.117 19.153 110.172 19.6868 110.172 20.0449C110.172 20.6764 109.993 20.9922 109.635 20.9922C109.277 20.9922 109.098 20.6862 109.098 20.0742C109.098 19.6706 109.156 19.0911 109.273 18.3359C109.391 17.5807 109.456 17.0078 109.469 16.6172C109.488 16.2266 109.498 15.3932 109.498 14.1172C109.498 13.7786 109.394 13.388 109.186 12.9453C108.977 12.5026 108.648 11.8939 108.199 11.1191C107.75 10.3444 107.382 9.66081 107.096 9.06836L106.803 8.90234C106.646 9.1888 106.37 9.33203 105.973 9.33203L105.152 9.36133C104.592 9.36133 104.173 9.22461 103.893 8.95117L103.688 9.14648C103.707 9.38737 103.717 9.90169 103.717 10.6895L103.707 13.082C103.707 13.7982 103.72 14.3255 103.746 14.6641L103.932 16.0996C103.932 16.3665 103.84 16.5 103.658 16.5C103.476 16.5 103.385 16.3763 103.385 16.1289L103.541 14.918C103.541 14.625 103.453 14.3906 103.277 14.2148C103.108 14.0456 102.883 13.9609 102.604 13.9609C102.33 13.9609 102.086 14.0814 101.871 14.3223C101.663 14.5697 101.559 14.8887 101.559 15.2793C101.559 15.6699 101.63 16.1973 101.773 16.8613C101.917 17.5319 101.988 18.0137 101.988 18.3066C101.988 18.9186 101.77 19.2246 101.334 19.2246C100.898 19.2246 100.68 18.9251 100.68 18.3262C100.68 18.0462 100.742 17.5579 100.865 16.8613C100.995 16.1647 101.061 15.6113 101.061 15.2012C101.061 14.791 100.966 14.4525 100.777 14.1855C100.589 13.9251 100.374 13.7949 100.133 13.7949C99.8919 13.7949 99.6868 13.8763 99.5176 14.0391C99.3483 14.2083 99.2637 14.4167 99.2637 14.6641L99.5273 16.9785C99.5273 17.3757 99.3809 17.5742 99.0879 17.5742C98.7949 17.5742 98.6484 17.3724 98.6484 16.9688C98.6484 16.7344 98.7103 16.3242 98.834 15.7383C98.9577 15.1589 99.0163 14.7064 99.0098 14.3809C99.0033 14.0553 99 9.8431 99 1.74414C99 1.34049 98.8763 1.01823 98.6289 0.777344L98.8242 0.582031C99.0781 0.829427 99.4004 0.953125 99.791 0.953125H108.541C109.908 0.953125 110.826 0.995443 111.295 1.08008C111.77 1.1582 112.184 1.24284 112.535 1.33398C112.893 1.42513 113.193 1.53906 113.434 1.67578C113.681 1.80599 113.928 1.97201 114.176 2.17383C114.43 2.36914 114.632 2.59375 114.781 2.84766C115.126 3.42708 115.299 4.04232 115.299 4.69336C115.299 5.3444 115.247 5.87826 115.143 6.29492C115.045 6.70508 114.879 7.09245 114.645 7.45703C114.137 8.24479 113.245 8.63867 111.969 8.63867L111.891 8.86328C112.301 9.02604 112.574 9.25065 112.711 9.53711C113.284 10.7871 113.707 11.5814 113.98 11.9199C114.254 12.252 114.508 12.5189 114.742 12.7207C114.977 12.9225 115.312 13.1276 115.748 13.3359C116.184 13.5443 116.448 13.681 116.539 13.7461C116.63 13.8047 116.676 13.8535 116.676 13.8926C116.676 14.5436 116.764 15.3802 116.939 16.4023C117.115 17.4245 117.203 18.082 117.203 18.375C117.203 18.668 117.19 18.8796 117.164 19.0098C117.145 19.14 117.096 19.2669 117.018 19.3906C116.939 19.5208 116.826 19.5859 116.676 19.5859C116.526 19.5859 116.412 19.4785 116.334 19.2637C116.262 19.0488 116.227 18.7852 116.227 18.4727C116.227 18.1602 116.269 17.6003 116.354 16.793C116.438 15.9922 116.48 15.3867 116.48 14.9766C116.48 14.1628 116.217 13.7559 115.689 13.7559C115.429 13.7559 115.234 13.8014 115.104 13.8926C114.98 13.9837 114.918 14.1693 114.918 14.4492C114.918 14.7357 114.977 15.1882 115.094 15.8066C115.211 16.4251 115.27 16.8906 115.27 17.2031C115.27 17.5221 115.149 17.6816 114.908 17.6816C114.667 17.6816 114.547 17.5221 114.547 17.2031ZM108.043 4.19531L105.738 4.26367C104.794 4.26367 104.179 4.1237 103.893 3.84375L103.688 4.0293C103.948 4.2832 104.078 4.60872 104.078 5.00586V5.66016C104.078 6.05078 103.948 6.3763 103.688 6.63672L103.893 6.83203C104.173 6.54557 104.752 6.40234 105.631 6.40234L108.102 6.49023C108.759 6.49023 109.267 6.4056 109.625 6.23633C109.99 6.06055 110.172 5.74154 110.172 5.2793C110.172 4.98633 110.071 4.75846 109.869 4.5957C109.667 4.42643 109.423 4.31901 109.137 4.27344C108.85 4.22135 108.486 4.19531 108.043 4.19531ZM124.898 16.8516L124.996 15.8652V14.0391C123.245 13.9479 121.936 13.7103 121.07 13.3262C120.204 12.9355 119.566 12.4473 119.156 11.8613C118.909 11.5163 118.717 11.1322 118.58 10.709C118.45 10.2793 118.232 9.95703 117.926 9.74219L118.072 9.53711C118.365 9.73242 118.681 9.83008 119.02 9.83008C119.365 9.83008 119.804 9.81706 120.338 9.79102C120.872 9.76497 121.474 9.73568 122.145 9.70312C122.815 9.66406 123.294 9.63802 123.58 9.625C123.867 9.61198 124.078 9.57292 124.215 9.50781C124.352 9.4362 124.449 9.30924 124.508 9.12695L124.947 9.27344C124.928 9.32552 124.918 9.39388 124.918 9.47852C124.918 9.69336 125.097 9.9375 125.455 10.2109C125.813 10.4844 126.461 10.6211 127.398 10.6211C128.03 10.6211 128.479 10.5137 128.746 10.2988C128.863 10.2012 128.922 10.084 128.922 9.94727C128.922 9.62826 128.746 9.41667 128.395 9.3125C128.043 9.20833 127.617 9.12044 127.115 9.04883C126.62 8.9707 126.122 8.90885 125.621 8.86328C125.126 8.81771 124.589 8.7526 124.01 8.66797C123.43 8.58333 122.883 8.49219 122.369 8.39453C121.855 8.29036 121.354 8.14062 120.865 7.94531C120.383 7.75 119.97 7.52214 119.625 7.26172C119.28 6.99479 119 6.65625 118.785 6.24609C118.577 5.82943 118.473 5.35742 118.473 4.83008C118.473 4.30273 118.554 3.82096 118.717 3.38477C118.886 2.94857 119.114 2.57422 119.4 2.26172C119.687 1.94922 120.032 1.67253 120.436 1.43164C120.846 1.19076 121.272 0.995443 121.715 0.845703C122.164 0.695964 122.652 0.575521 123.18 0.484375C124.098 0.315104 124.964 0.230469 125.777 0.230469C126.591 0.230469 127.21 0.24349 127.633 0.269531C128.062 0.289062 128.564 0.33138 129.137 0.396484C129.716 0.455078 130.237 0.55599 130.699 0.699219C131.168 0.835938 131.63 1.01172 132.086 1.22656C133.036 1.66927 133.704 2.35612 134.088 3.28711C134.244 3.61914 134.459 3.92839 134.732 4.21484L134.605 4.43945C134.332 4.25065 134.016 4.15625 133.658 4.15625H133.531C133.01 4.17578 132.265 4.21484 131.295 4.27344C130.331 4.32552 129.71 4.35807 129.43 4.37109C129.156 4.38411 128.958 4.42318 128.834 4.48828C128.717 4.55339 128.632 4.67708 128.58 4.85938L128.15 4.74219C128.17 4.68359 128.18 4.62174 128.18 4.55664C128.18 4.2832 127.958 4.04883 127.516 3.85352C127.073 3.65169 126.572 3.55078 126.012 3.55078C124.918 3.55078 124.371 3.76562 124.371 4.19531C124.371 4.57943 125.191 4.85938 126.832 5.03516C127.216 5.08073 127.652 5.1263 128.141 5.17188C129.84 5.34766 131.142 5.57878 132.047 5.86523C133.948 6.46419 134.898 7.60677 134.898 9.29297C134.898 9.98307 134.755 10.6048 134.469 11.1582C134.182 11.7051 133.808 12.151 133.346 12.4961C132.89 12.8411 132.35 13.1276 131.725 13.3555C130.598 13.7656 129.312 13.9707 127.867 13.9707C127.477 13.9707 127.245 13.9674 127.174 13.9609C126.822 13.9609 126.646 14.2311 126.646 14.7715V15.0059C126.646 15.1816 126.689 15.4388 126.773 15.7773C126.865 16.1224 126.91 16.3796 126.91 16.5488C126.91 16.8939 126.79 17.0664 126.549 17.0664C126.425 17.0664 126.327 17.0143 126.256 16.9102C126.191 16.806 126.158 16.6758 126.158 16.5195C126.158 16.3633 126.197 16.0964 126.275 15.7188C126.36 15.3477 126.402 15.0775 126.402 14.9082C126.402 14.7389 126.399 14.6185 126.393 14.5469C126.393 14.4818 126.383 14.3971 126.363 14.293C126.35 14.1953 126.324 14.1237 126.285 14.0781C126.194 13.9609 126.038 13.9023 125.816 13.9023C125.413 13.9023 125.211 14.2539 125.211 14.957L125.27 16.5586C125.27 16.9883 125.208 17.2031 125.084 17.2031C124.96 17.2031 124.898 17.0859 124.898 16.8516ZM142.662 18.873L142.848 14.2344C140.862 13.9544 139.332 13.2383 138.258 12.0859C137.19 10.9336 136.656 9.36133 136.656 7.36914C136.656 5.24674 137.353 3.61589 138.746 2.47656C140.283 1.20703 142.564 0.572266 145.592 0.572266C150.442 0.572266 153.154 1.96549 153.727 4.75195C153.805 5.1556 153.977 5.46484 154.244 5.67969L154.078 5.89453C153.766 5.66016 153.427 5.55924 153.062 5.5918L149.303 5.82617C148.867 5.85872 148.583 6.01823 148.453 6.30469L148.131 6.14844C148.196 6.00521 148.229 5.88151 148.229 5.77734C148.229 5.4388 148.115 5.14583 147.887 4.89844C147.665 4.64453 147.382 4.45573 147.037 4.33203C146.367 4.09115 145.715 3.9707 145.084 3.9707C144.12 3.9707 143.368 4.29948 142.828 4.95703C142.294 5.60807 142.027 6.45768 142.027 7.50586C142.027 8.54753 142.33 9.40039 142.936 10.0645C143.548 10.722 144.404 11.0508 145.504 11.0508C145.855 11.0508 146.246 10.9661 146.676 10.7969C147.112 10.6211 147.496 10.3704 147.828 10.0449C148.167 9.7194 148.336 9.37435 148.336 9.00977C148.336 8.9056 148.3 8.77539 148.229 8.61914L148.551 8.45312C148.707 8.74609 148.958 8.9056 149.303 8.93164C149.654 8.95768 150.107 8.99349 150.66 9.03906C151.878 9.14974 152.724 9.20508 153.199 9.20508C153.674 9.20508 154.049 9.10417 154.322 8.90234L154.479 9.10742C154.238 9.28971 154.055 9.62826 153.932 10.123C153.814 10.6113 153.583 11.0833 153.238 11.5391C152.893 11.9883 152.503 12.3626 152.066 12.6621C151.637 12.9551 151.135 13.2122 150.562 13.4336C149.579 13.8242 148.502 14.1009 147.33 14.2637C147.33 14.8626 147.408 15.7513 147.564 16.9297C147.721 18.1081 147.799 18.8926 147.799 19.2832C147.799 19.6738 147.75 19.9473 147.652 20.1035C147.561 20.2598 147.424 20.3379 147.242 20.3379C147.06 20.3379 146.92 20.2598 146.822 20.1035C146.725 19.9473 146.676 19.6966 146.676 19.3516C146.676 19.013 146.728 18.3522 146.832 17.3691C146.943 16.3861 146.998 15.7285 146.998 15.3965C146.998 15.0645 146.982 14.8398 146.949 14.7227C146.917 14.6055 146.878 14.5143 146.832 14.4492C146.786 14.3906 146.708 14.3451 146.598 14.3125C146.344 14.2474 146.038 14.2311 145.68 14.2637C144.964 14.3223 144.605 14.4427 144.605 14.625L144.84 17.2812C144.84 17.7044 144.716 17.916 144.469 17.916C144.221 17.916 144.098 17.737 144.098 17.3789C144.098 17.0208 144.14 16.5456 144.225 15.9531C144.316 15.3607 144.361 14.9342 144.361 14.6738C144.361 14.4199 144.277 14.293 144.107 14.293C143.775 14.293 143.551 14.3288 143.434 14.4004C143.323 14.472 143.268 14.5371 143.268 14.5957L143.375 18.8242C143.375 18.9349 143.339 19.0326 143.268 19.1172C143.196 19.2083 143.108 19.2539 143.004 19.2539C142.9 19.2539 142.815 19.2148 142.75 19.1367C142.691 19.0651 142.662 18.9772 142.662 18.873ZM164.83 15.582L164.898 14.6445C164.898 14.4818 164.82 14.3548 164.664 14.2637C164.508 14.179 164.339 14.1367 164.156 14.1367C163.974 14.1367 163.811 14.1855 163.668 14.2832C163.525 14.3809 163.453 14.5208 163.453 14.7031V16.9492C163.453 17.2747 163.521 17.7533 163.658 18.3848C163.795 19.0163 163.863 19.4655 163.863 19.7324C163.863 20.0059 163.805 20.2305 163.688 20.4062C163.57 20.582 163.408 20.6699 163.199 20.6699C162.997 20.6699 162.844 20.5788 162.74 20.3965C162.636 20.2142 162.584 19.9766 162.584 19.6836C162.584 19.3906 162.659 18.8828 162.809 18.1602C162.958 17.4375 163.033 16.8776 163.033 16.4805C163.033 14.8724 162.734 14.0684 162.135 14.0684C161.327 14.0684 160.924 14.0358 160.924 13.9707V13.9902C160.924 14.4395 161.021 15.097 161.217 15.9629C161.419 16.8353 161.52 17.4603 161.52 17.8379C161.52 18.2155 161.451 18.5247 161.314 18.7656C161.178 19.013 160.966 19.1367 160.68 19.1367C160.4 19.1367 160.178 19.0195 160.016 18.7852C159.859 18.5508 159.781 18.2448 159.781 17.8672C159.781 17.4961 159.876 16.8548 160.064 15.9434C160.253 15.0384 160.348 14.3516 160.348 13.8828C158.805 13.3945 157.643 12.597 156.861 11.4902C156.087 10.3835 155.699 9.01628 155.699 7.38867C155.699 4.01628 157.398 1.88737 160.797 1.00195C161.897 0.715495 163.033 0.572266 164.205 0.572266C165.383 0.572266 166.383 0.63737 167.203 0.767578C168.03 0.897786 168.827 1.12891 169.596 1.46094C170.37 1.78646 171.028 2.20312 171.568 2.71094C172.115 3.21224 172.551 3.86328 172.877 4.66406C173.202 5.45833 173.365 6.36654 173.365 7.38867C173.365 9.47201 172.779 11.0866 171.607 12.2324C170.436 13.3717 168.788 14.0716 166.666 14.332C166.64 14.3776 166.627 14.4492 166.627 14.5469L166.676 15.084C166.676 15.416 166.585 15.582 166.402 15.582C166.22 15.582 166.129 15.4225 166.129 15.1035L166.158 14.5566C166.158 14.3613 166.018 14.2637 165.738 14.2637C165.712 14.3223 165.699 14.4329 165.699 14.5957L165.748 15.543C165.748 15.7383 165.712 15.9271 165.641 16.1094C165.569 16.2917 165.449 16.3828 165.279 16.3828C164.98 16.3828 164.83 16.1159 164.83 15.582ZM161.139 7.39844C161.139 9.78125 162.271 10.9727 164.537 10.9727C166.803 10.9727 167.936 9.78125 167.936 7.39844C167.936 6.30469 167.643 5.4681 167.057 4.88867C166.471 4.30924 165.631 4.01953 164.537 4.01953C163.443 4.01953 162.604 4.30924 162.018 4.88867C161.432 5.4681 161.139 6.30469 161.139 7.39844ZM176.09 15.1914L176.07 13.209V1.74414C176.07 1.34701 175.947 1.02474 175.699 0.777344L175.895 0.582031C176.142 0.829427 176.464 0.953125 176.861 0.953125H185.289C186.637 0.953125 187.548 0.992188 188.023 1.07031C188.505 1.14844 188.925 1.23633 189.283 1.33398C189.641 1.42513 189.941 1.53581 190.182 1.66602C190.423 1.79622 190.67 1.96224 190.924 2.16406C191.178 2.36589 191.38 2.59375 191.529 2.84766C191.874 3.43359 192.047 4.09115 192.047 4.82031C192.047 5.54297 191.965 6.16146 191.803 6.67578C191.646 7.18359 191.393 7.63932 191.041 8.04297C190.312 8.88932 189.072 9.3125 187.32 9.3125H181.939C181.536 9.3125 181.21 9.1888 180.963 8.94141L180.758 9.12695C181.018 9.38737 181.148 9.71289 181.148 10.1035V13.209C181.148 13.7103 181.142 14.3255 181.129 15.0547L180.689 15.0938C180.605 14.3646 180.494 14 180.357 14H176.861C176.783 14 176.718 14.1562 176.666 14.4688C176.62 14.7878 176.598 15.0905 176.598 15.377C176.598 15.6699 176.66 16.1647 176.783 16.8613C176.907 17.5579 176.969 18.0462 176.969 18.3262C176.969 18.9251 176.751 19.2246 176.314 19.2246C175.878 19.2246 175.66 18.9186 175.66 18.3066C175.66 18.0137 175.732 17.4961 175.875 16.7539C176.018 16.0117 176.09 15.4909 176.09 15.1914ZM181.148 5.00586V5.58203C181.148 5.96615 181.018 6.28841 180.758 6.54883L180.963 6.75391C181.217 6.5 181.542 6.37305 181.939 6.37305H185.104C185.761 6.37305 186.155 6.33724 186.285 6.26562C186.415 6.1875 186.526 6.10938 186.617 6.03125C186.773 5.88802 186.852 5.68294 186.852 5.41602C186.852 5.14909 186.822 4.95378 186.764 4.83008C186.712 4.69987 186.633 4.59896 186.529 4.52734C186.425 4.45573 186.321 4.39714 186.217 4.35156C186.113 4.30599 185.986 4.27344 185.836 4.25391C185.628 4.22786 185.396 4.21484 185.143 4.21484H181.939C181.536 4.21484 181.21 4.09115 180.963 3.84375L180.758 4.0293C181.018 4.28971 181.148 4.61523 181.148 5.00586ZM178.805 14.6641L179.059 16.9785C179.059 17.3757 178.912 17.5742 178.619 17.5742C178.333 17.5742 178.189 17.3724 178.189 16.9688C178.189 16.7344 178.248 16.3242 178.365 15.7383C178.489 15.1589 178.551 14.778 178.551 14.5957C178.551 14.4199 178.548 14.1921 178.541 13.9121C178.541 13.6322 178.541 13.3978 178.541 13.209L178.98 13.7266C178.935 13.7266 178.893 13.8307 178.854 14.0391C178.821 14.2539 178.805 14.4622 178.805 14.6641ZM199.967 12.3789L199.811 11.168V11.0605C199.947 10.8197 200.133 10.6992 200.367 10.6992L208.336 10.709C208.733 10.709 209.055 10.582 209.303 10.3281L209.498 10.5234C209.212 10.8099 209.068 11.3568 209.068 12.1641C209.068 12.1641 209.068 12.3529 209.068 12.7305C209.068 13.388 209.212 13.8665 209.498 14.166L209.303 14.3613C209.049 14.1074 208.727 13.9805 208.336 13.9805H196.783C196.204 13.9805 195.777 14.0911 195.504 14.3125C195.191 14.5729 195.035 15.3086 195.035 16.5195C195.035 17.0078 195.11 17.7272 195.26 18.6777C195.41 19.6348 195.484 20.3542 195.484 20.8359C195.484 21.5326 195.237 21.8809 194.742 21.8809C194.208 21.8809 193.941 21.5228 193.941 20.8066C193.941 20.3184 194.049 19.5957 194.264 18.6387C194.479 17.6816 194.586 16.9557 194.586 16.4609L194.537 13.1895V1.80273C194.537 1.39909 194.413 1.07682 194.166 0.835938L194.361 0.630859C194.628 0.884766 194.954 1.01172 195.338 1.01172H207.877C208.274 1.01172 208.6 0.884766 208.854 0.630859L209.049 0.835938C208.762 1.1224 208.619 1.66276 208.619 2.45703V3.00391C208.619 3.70052 208.762 4.1888 209.049 4.46875L208.854 4.6543C208.528 4.32227 207.763 4.15625 206.559 4.15625L201.705 4.38086C200.507 4.38086 199.745 4.21484 199.42 3.88281L199.215 4.07812C199.469 4.32552 199.596 4.6543 199.596 5.06445C199.596 5.4681 199.469 5.79362 199.215 6.04102L199.42 6.22656C199.732 5.90104 200.39 5.73828 201.393 5.73828L205.484 5.96289C206.493 5.96289 207.161 5.80013 207.486 5.47461L207.691 5.66992C207.405 5.95638 207.262 6.50651 207.262 7.32031V7.86719C207.262 8.53776 207.405 9.02279 207.691 9.32227L207.486 9.52734C207.174 9.20182 206.513 9.03906 205.504 9.03906L201.412 9.25391C200.41 9.25391 199.745 9.09115 199.42 8.76562L199.225 8.96094C199.42 9.15625 199.534 9.39062 199.566 9.66406C199.599 9.93099 199.618 10.123 199.625 10.2402C199.632 10.3509 199.632 10.5267 199.625 10.7676C199.618 11.002 199.615 11.1419 199.615 11.1875L199.449 12.3594C199.449 12.5938 199.534 12.7109 199.703 12.7109C199.879 12.7109 199.967 12.6003 199.967 12.3789Z" fill="white"/>
</svg>
